<svg xmlns="http://www.w3.org/2000/svg" xml:space="preserve" viewBox="0 0 1024 1024">
    <path d="M590.9737 230.2862c23.7754-19.3534 44.8825-56.4823 56.2817-84.7328 4.209-10.4304 9.5056-31.268-4.4373-36.7582-15.442-6.0807-25.2832 11.4871-30.5591 22.9243-13.3567 28.9638-21.197 66.6966-21.2853 98.5667m-217.8842-71.7128c-28.7002 6.5867-18.7017 34.974-7.4444 52.6912 19.013 29.9201 45.7644 56.8159 59.2957 89.9204 7.2265 17.6798 7.9614 38.531-10.3754 49.8904-10.7698 6.6714-19.8932-.619-27.5745-8.4145-12.2085-12.3952-28.9544-48.9842-50.2137-44.9533-13.3272 2.5264-15.5562 15.781-9.542 25.9576 8.9679 15.1758 44.2115 39.0532 18.1605 56.0222-24.946 16.248-57.2984-44.1717-78.6285-16.1476-17.41 22.8709 33.561 43.7462 45.6364 55.5345 7.6017 7.4202 14.5342 19.5594 4.956 28.3717-10.1386 9.3275-27.227 5.8603-39.3783 3.7507-32.0171-5.5613-63.0153-16.1338-95.1082-21.2904-9.564-1.5356-42.513-6.7804-40.696 11.3213 1.1956 11.9093 23.0551 14.2109 32.0498 15.7257 36.058 6.0783 72.8582 5.6322 108.9421 11.5427 11.7398 1.923 39.489 5.8448 37.0265 22.9055-2.7132 18.7952-22.6426 25.8141-38.7557 28.1365-37.2766 5.371-75.1255-8.6652-112.4007-9.1079-20.6325-.2457-54.2827 2.8204-45.9397 32.84 5.4387 19.5698 37.1341 12.1721 51.1275 8.8554 31.7284-7.5204 62.7444-18.4077 95.1082-22.9055 15.366-2.1374 33.4002-2.5592 44.279 10.6763 30.0472 36.5562-27.8875 53.6428-51.196 64.4402-10.135 4.6966-20.9191 12.6701-16.7667 25.3956 3.493 10.704 12.4004 9.988 20.2252 4.2314 19.39-14.2627 42.0793-50.9399 64.3468-19.7842 2.8688 4.0153 5.7168 8.7776 6.0004 13.8322 1.3765 24.4636-43.71 34.3773-59.9648 43.8137-10.8441 6.2962-19.096 17.0832-9.6561 28.6519 26.8672 32.9264 55.4896-21.7868 69.6002-39.6083 6.706-8.4699 17.3304-20.1975 27.6713-9.9812 15.705 15.52 12.53 41.0574 2.5126 58.3982-20.125 34.8424-57.921 56.3317-86.6765 83.1592-20.5952 19.2136-34.265 47.0197 0 60.7758 25.629 10.2908 38.403-16.8203 45.4929-36.722 12.983-36.449 26.4453-124.6455 80.7417-115.669 37.7182 6.234 33.6804 33.2602 24.211 62.0625-3.7022 11.259-10.0399 28.771 3.5329 36.0045 29.404 15.6686 31.0796-44.0611 38.2059-58.483 5.8603-11.8608 19.485-19.7807 30.2063-8.2588 10.3426 11.1121 8.0461 30.86 6.3619 44.5711-3.9271 31.9789-11.8332 64.5924-12.5716 96.8376-.4268 18.5979 4.5288 46.6341 29.3712 42.4217 24.9944-4.2401 25.764-29.0184 22.34-49.3387-5.9364-35.2333-21.05-68.3638-26.0233-103.7544-2.1253-15.1188-2.8083-34.0402 14.0656-41.1058 39.9783-16.7374 31.8042 69.889 67.4266 62.984 30.4934-5.9104-6.2876-52.3146-9.165-66.8385-2.8221-14.2437 13.1405-25.712 26.4643-23.796 11.7242 1.686 19.9934 12.7445 25.8261 22.0668 13.808 22.072 21.7557 47.3223 35.906 69.1696 10.7853 16.6508 28.1054 27.3047 45.1107 11.2764 12.4627-11.7468 4.7087-26.6615-4.9785-37.215-21.0742-22.9557-48.96-38.2733-70.5824-60.591-12.3485-12.7478-23.7269-32.4456-5.3174-45.4927 11.6828-8.2796 25.2901-2.7495 36.2881 3.9323 24.078 14.6258 40.3657 38.8162 62.2526 56.0343 8.0653 6.3445 32.8384 22.7118 40.8828 7.6795 8.1672-15.2623-18.828-31.1142-28.778-37.3152-20.0039-12.4679-70.8678-31.927-73.351-59.128-.7678-8.4041 6.5867-15.5527 10.2285-22.48 3.2388-6.1596 6.1353-12.1376 11.406-16.9034 10.9548-9.9051 25.0567-7.5499 37.8825-3.232 26.485 8.9125 49.5307 26.3156 74.3574 38.7281 11.9352 5.9659 33.3432 17.0054 44.0714 3.6573 14.396-17.9114-14.3285-26.6026-26.779-29.8069-31.3183-8.0634-65.0022-10.4187-95.1083-22.6236-10.2336-4.1485-26.7859-11.5358-24.8353-25.1553 6.1094-42.6448 69.3858-24.5275 95.7342-24.2163 17.678.2092 33.2256-3.3789 34.398-24.2024 1.655-29.3677-13.5866-43.4817-41.315-33.383-26.5732 9.6786-89.5798 61.1183-107.8821 16.0906-18.0757-44.4726 70.4303-29.8519 67.7067-65.7111-2.4382-32.1155-44.6179-2.1235-60.1205-1.8261-9.1995.1784-26.6372-7.038-24.2595-18.9248 1.8174-9.0907 13.4864-15.788 20.801-20.0108 20.2823-11.707 42.5653-19.8551 62.2527-32.6273 11.572-7.5067 25.1207-20.3912 19.006-35.5532-7.6-18.8418-27.4482-21.8645-43.2154-11.9421-26.8326 16.8877-42.937 46.2416-64.1375 69.007-6.4397 6.9152-19.62 24.3063-30.7822 17.576-10.391-6.2633-7.1452-20.6852-3.1057-29.6807 7.3233-16.3032 46.003-58.2235 26.7323-75.336-10.9392-9.7132-23.3793.7297-30.3188 9.6508-11.3992 14.6554-28.1347 65.253-52.2887 59.9217-12.7048-2.8048-14.4461-16.5402-12.4437-27.092 3.1317-16.5073 23.9258-59.2248 3.609-70.5893-10.8095-6.0463-20.668 1.8606-24.5172 11.795-6.1475 15.8572-6.649 55.9255-30.6318 55.9255-29.0512 0-13.1716-47.0786-14.2022-62.8424-.7488-11.4577-9.421-22.8913-21.9233-16.5358-27.1889 13.821 29.091 77.0524-14.0224 81.8942-16.9829 1.9074-30.5246-11.9231-37.8306-25.5858-15.6427-29.2605-15.4231-65.173-23.3413-96.8375-4.4217-17.6818-12.6062-42.4201-35.6656-37.128M784.7248 387.201c-19.5698 7.9268-5.3987 37.917 13.6835 29.8259 20.0177-8.4889 6.1353-37.8531-13.6835-29.826M101.6 412.8733c-20.6967 5.321-13.6043 36.7896 6.9142 32.017 21.073-4.9024 13.3939-37.2393-6.9142-32.017m702.0703 130.4055c22.2172 18.406 69.9477 31.5327 98.5667 32.7882 12.575.5516 33.8135 1.0271 32.5494-17.218-.9909-14.2663-19.4176-18.2038-30.8202-19.9988-33.473-5.269-66.9407 1.7968-100.296 4.4286M215.7287 664.3256c-32.7466 6.08-65.2532 8.5095-96.8374 20.1992-11.2347 4.1589-29.0518 11.662-27.3783 26.4885 2.0313 17.998 24.2284 14.0777 36.0245 10.327 28.8107-9.1563 69.7088-32.9195 88.1912-57.0147z" style="fill:#a5f;fill-opacity:1;stroke:#000;stroke-width:4.3231;stroke-dasharray:none;stroke-opacity:1"/>
    <path d="M226.6946 514.6544h-1.9084l11.4504-87.7863-46.7307 5.7786-14.8725 43.8398L137 594.8071l40.0763-1.9084 22.9008-83.9695h1.9084l-7.6336 85.8779 27.2918-1.9618 10.2885-22.8474 19.6716-57.252h1.9084l-7.6336 82.0612 41.9847-7.6336 17.1756-166.0306-42.6546 7.3626-11.9256 25.0802-23.6641 61.0687m377.8626-83.9695-41.9847 145.0382h-1.9084l-1.9084-13.3588h-22.9008l28.626-137.4046c-9.6565.1984-33.3874-.5058-40.3493 6.876-7.981 8.4598-8.1813 31.5821-10.4141 42.7423-7.9141 39.5611-19.5114 81.647-19.8473 122.1375l62.977-7.6336v5.7252l40.0764-3.8168c4.5172-19.706 6.0038-34.334 28.626-34.3512l-3.8168 40.0764 40.0763-5.7252 7.6336-167.939-64.8855 7.6336m57.2519 166.0306c40.2367 3.1755 129.084-16.5783 102.645-76.336-2.981-6.7385-7.937-11.9179-12.9503-17.1755 23.771-11.313 45.7843-52.0955 18.7309-72.311-14.145-10.5688-31.17-7.3513-47.357-5.9333-7.8796.6908-21.1602.6641-27.645 5.7023-8.664 6.7328-8.4713 33.5095-10.0037 43.916-6.0745 41.2347-15.0058 81.374-23.42 122.1375m-272.9006 0c54.2824 10.0782 97.8416-38.3589 112.5477-85.8779 6.309-20.3913 9.6374-45.5343-1.7748-64.8569-11.857-20.0745-60.2691-31.124-79.0936-13.6584-6.3034 5.8473-6.0954 22.6966-7.6125 30.8053-3.565 19.0592-6.6603 38.212-10.3321 57.252-4.7996 24.876-12.645 51.0191-13.7347 76.3359m20.9923-169.8474-34.3511 1.9084c-6.9008 35.5802-12.6432 71.5458-20.7653 106.8702-1.397 6.0707-5.5382 34.1718-16.8263 28.5553-9.6126-4.7824-1.107-26.8682.5229-34.2804 7.2786-33.1374 18.4332-69.143 19.893-103.0535-8.9178.1832-29.956-1.0687-36.5323 5.4542-6.8836 6.8282-7.0611 25.4313-8.8874 34.6221-5.399 27.1661-10.1756 54.628-13.9886 82.0611-1.6183 11.6317-4.6488 27.502 1.8855 38.1393 23.4389 38.1604 76.643-1.582 85.3092-30.5057 5.3664-17.9084 8.2652-37.0134 11.9084-55.3435 4.792-24.1049 11.3244-49.8207 11.832-74.4275m375.9542 47.71 43.893-3.8169-42.2727 57.252-21.2233 30.5343-1.3893 36.2596 99.2366-7.6336v-36.2596l-45.8015 3.8168C844.9026 515.2994 880.851 479.0914 887 430.685l-68.7023 5.6507-26.376 5.0153-6.0668 33.2271m-152.6717-19.084-5.7252 76.336h-15.2672c4.5668-22.124 7.8969-57.958 20.9924-76.336m87.7862 28.626 3.8168-26.7175c31.9447 1.4637 19.2977 21.3683-3.8168 26.7175M430.893 566.1811l20.9924-106.8703c19.5095 3.1012 20.2652 17.8341 16.7729 34.3512-5.3626 25.3721-15.9352 56.8073-37.7653 72.5191m-175.5725-57.2519-1.9084 1.9084 1.9084-1.9084m454.1984 40.0763c.2233-5.1794.9142-10.1507 1.7558-15.267.7843-4.771.7595-12.1414 3.9942-16.025 5.5726-6.687 18.9008-1.2194 22.5325 4.9828 6.1698 10.5382-3.9962 19.775-13.0153 23.4791-4.9866 2.0477-9.9504 2.5858-15.2672 2.8301z" style="opacity:1;mix-blend-mode:normal;fill:#fe5805;stroke:#000;stroke-width:2.5;stroke-linecap:round;stroke-linejoin:round;stroke-dasharray:none;stroke-opacity:1;paint-order:normal"/>
</svg>
